<svg width="267" height="209" viewBox="0 0 267 209" fill="none" xmlns="http://www.w3.org/2000/svg">
<g filter="url(#filter0_d_30_39)">
<path d="M252.635 64.7766C252.936 65.0763 252.936 66.0754 252.635 67.7738C252.435 69.4722 252.084 71.3204 251.582 73.3185C251.181 75.2168 250.73 77.0151 250.228 78.7135C249.827 80.312 249.476 81.311 249.175 81.7106C248.272 81.7106 247.269 81.7106 246.166 81.7106C245.163 81.6107 244.21 81.5608 243.308 81.5608C242.204 81.5608 241.151 81.5108 240.148 81.4109C239.847 85.8068 239.496 89.9029 239.095 93.6994C238.694 97.3959 238.293 100.643 237.891 103.44C237.49 106.138 237.139 108.286 236.838 109.884C236.537 111.583 236.236 112.432 235.936 112.432C235.133 112.532 234.281 112.182 233.378 111.383C232.475 110.583 231.623 109.634 230.82 108.535C230.018 107.337 229.266 106.088 228.563 104.789C227.962 103.49 227.611 102.391 227.51 101.492V80.6616C224.501 80.5617 221.643 80.4119 218.935 80.2121C215.123 80.0122 212.014 79.8124 209.607 79.6126C207.2 79.3129 205.294 79.0631 203.89 78.8633C202.586 78.6635 201.633 78.5137 201.031 78.4137C200.53 78.2139 200.279 78.114 200.279 78.114C199.477 77.9142 198.774 77.3647 198.173 76.4656C197.571 75.4665 197.069 74.3676 196.668 73.1687C196.267 71.9698 195.966 70.7709 195.765 69.5721C195.665 68.2733 195.715 67.2243 195.916 66.425C201.432 52.8378 205.946 41.998 209.456 33.9056C213.067 25.8132 215.926 19.619 218.032 15.3231C220.539 10.3278 222.445 6.93098 223.749 5.13267C224.852 3.83389 226.407 2.78488 228.413 1.98563C230.519 1.18638 232.626 0.636901 234.732 0.337183C236.838 0.0374648 238.694 -0.0624413 240.299 0.0374648C242.004 0.0374648 243.007 0.237277 243.308 0.636901C244.01 1.33624 244.311 2.43521 244.21 3.9338C244.21 5.43239 244.21 7.28065 244.21 9.47859C244.21 12.4758 244.11 16.0724 243.909 20.2684C243.809 24.4645 243.608 29.0102 243.308 33.9056C243.107 38.7011 242.856 43.7464 242.555 49.0414C242.254 54.2365 241.903 59.4316 241.502 64.6267C244.712 64.5268 247.32 64.4769 249.326 64.4769C251.332 64.4769 252.435 64.5768 252.635 64.7766ZM209.005 66.2752C211.613 66.0754 214.521 65.8755 217.731 65.6757C221.041 65.4759 224.301 65.2761 227.51 65.0763C227.51 58.6823 227.56 52.2883 227.661 45.8943C227.761 39.5004 227.912 33.7558 228.112 28.6605C224.702 35.2543 221.292 41.948 217.882 48.7417C214.572 55.4354 211.613 61.2799 209.005 66.2752Z" fill="url(#paint0_linear_30_39)"/>
</g>
<g filter="url(#filter1_d_30_39)">
<path d="M10.728 111.62C10.544 111.16 10.452 109.503 10.452 106.649C10.452 103.795 10.452 100.205 10.452 95.8789C10.544 91.5524 10.636 86.7196 10.728 81.3806C10.912 75.9494 11.05 70.4723 11.142 64.9491C11.326 59.3339 11.51 53.9028 11.694 48.6558C11.878 43.3167 12.016 38.576 12.1081 34.4336C12.2921 30.2913 12.4301 26.9313 12.5221 24.3538C12.6141 21.6843 12.7061 20.2575 12.7981 20.0734C12.8901 19.7052 13.3041 18.7847 14.0402 17.3118C14.7762 15.839 15.6043 14.3201 16.5243 12.7552C17.5364 11.0982 18.5484 9.67142 19.5605 8.47474C20.5726 7.186 21.4466 6.58766 22.1827 6.67971C22.4587 6.77176 22.6887 8.61282 22.8727 12.2029C23.1487 15.7009 23.3787 20.2115 23.5628 25.7346C23.8388 31.2578 24.0228 37.3793 24.1148 44.0992C24.2988 50.727 24.4368 57.2167 24.5288 63.5683C24.7128 69.8279 24.8508 75.5352 24.9428 80.6902C25.0348 85.7531 25.1269 89.4812 25.2189 91.8746C28.163 92.1507 31.1072 92.3809 34.0514 92.565C37.0876 92.7491 39.8018 92.9792 42.1939 93.2554C44.5861 93.4395 46.5182 93.6236 47.9903 93.8077C49.5544 93.9918 50.3824 94.1299 50.4744 94.2219C50.7504 94.5901 51.1185 95.4646 51.5785 96.8454C52.1305 98.1342 52.6366 99.561 53.0966 101.126C53.5566 102.599 53.8786 103.98 54.0626 105.268C54.3387 106.557 54.2927 107.339 53.9246 107.616C43.344 109.549 35.1555 110.837 29.3591 111.482C23.5628 112.126 19.2845 112.448 16.5243 112.448C13.3041 112.448 11.372 112.172 10.728 111.62Z" fill="#DADADA"/>
<path d="M95.6032 28.2201C95.2352 28.6803 92.981 28.7264 88.8408 28.3581C84.7005 27.9899 78.1681 27.3916 69.2436 26.5631C69.2436 29.6009 69.2436 33.329 69.2436 37.7475C69.3356 42.1661 69.3356 46.9068 69.2436 51.9697C76.144 52.6141 81.5263 53.2124 85.3906 53.7647C89.2548 54.317 91.2789 54.6852 91.4629 54.8694C91.831 55.2376 91.969 56.02 91.877 57.2167C91.785 58.3213 91.555 59.564 91.1869 60.9448C90.8189 62.3256 90.3589 63.6604 89.8068 64.9491C89.2548 66.1458 88.7028 66.9283 88.1507 67.2965C87.6907 67.4806 85.8506 67.7567 82.6304 68.125C79.5022 68.4011 75.0399 68.6773 69.2436 68.9534C69.2436 72.9117 69.1976 76.8239 69.1056 80.6902C69.1056 84.5564 69.0596 88.1004 68.9676 91.3223C77.8921 91.4143 84.3785 91.5984 88.4268 91.8746C92.567 92.0587 94.8212 92.3348 95.1892 92.703C95.5572 93.1633 95.5572 94.0378 95.1892 95.3266C94.9132 96.6153 94.4071 97.9961 93.6711 99.4689C93.027 100.85 92.291 102.231 91.4629 103.611C90.7269 104.992 90.1289 105.959 89.6688 106.511C89.4848 106.695 88.3808 106.787 86.3566 106.787C84.3325 106.695 82.0784 106.557 79.5942 106.373C77.1101 106.189 74.7179 106.005 72.4178 105.821C70.1176 105.544 68.5995 105.314 67.8635 105.13C66.4834 104.67 65.0113 103.933 63.4472 102.921C61.8831 101.816 60.641 100.435 59.721 98.7785C59.537 98.3183 59.215 96.7994 58.7549 94.2219C58.3869 91.5524 57.9729 88.1925 57.5129 84.1421C57.0528 80.0918 56.5928 75.5352 56.1328 70.4723C55.6727 65.4094 55.2127 60.2544 54.7527 55.0074C54.2927 49.7604 53.8786 44.6055 53.5106 39.5426C53.1426 34.4797 52.8206 29.923 52.5445 25.8727C52.3605 21.7303 52.2685 18.3244 52.2685 15.6549C52.2685 12.8933 52.4065 11.2363 52.6826 10.684C52.9586 9.94758 54.2467 9.39527 56.5468 9.02705C58.8469 8.65884 61.6071 8.42871 64.8273 8.33666C68.0475 8.15255 71.4977 8.10653 75.1779 8.19858C78.9502 8.29063 82.4464 8.47474 85.6666 8.7509C88.8868 8.935 91.601 9.21116 93.8091 9.57937C96.0172 9.85553 97.2593 10.1317 97.5353 10.4078C97.9033 10.8681 98.0874 11.9267 98.0874 13.5837C98.1794 15.2406 98.0874 17.0817 97.8113 19.1068C97.6273 21.0399 97.3053 22.927 96.8453 24.7681C96.4773 26.5171 96.0632 27.6677 95.6032 28.2201Z" fill="#DADADA"/>
<path d="M116.719 64.2587C116.719 65.4554 116.673 67.3425 116.58 69.92C116.58 72.4975 116.534 75.3971 116.442 78.619C116.35 81.8408 116.212 85.2007 116.028 88.6988C115.936 92.1047 115.752 95.2345 115.476 98.0881C115.2 100.85 114.878 103.151 114.51 104.992C114.234 106.833 113.866 107.754 113.406 107.754C112.026 107.754 110.692 106.787 109.404 104.854C108.208 102.829 106.966 100.666 105.678 98.3643C105.402 97.812 105.08 96.2011 104.712 93.5315C104.436 90.7699 104.114 87.318 103.746 83.1756C103.47 79.0332 103.194 74.4306 102.918 69.3677C102.642 64.3048 102.366 59.1498 102.09 53.9028C101.814 48.6558 101.584 43.5008 101.4 38.4379C101.308 33.375 101.216 28.8184 101.124 24.7681C101.032 20.7178 101.032 17.3578 101.124 14.6883C101.216 11.9267 101.4 10.3158 101.676 9.85553C102.044 9.21116 103.332 8.7509 105.54 8.47474C107.748 8.10653 110.416 7.92242 113.544 7.92242C116.765 7.92242 120.215 8.01447 123.895 8.19858C127.575 8.38269 130.979 8.65884 134.108 9.02705C137.328 9.30321 139.996 9.6254 142.112 9.99361C144.32 10.3618 145.562 10.684 145.838 10.9602C146.206 11.3284 146.252 12.341 145.976 13.9979C145.792 15.5628 145.424 17.3118 144.872 19.2449C144.412 21.086 143.814 22.835 143.078 24.4919C142.434 26.1489 141.882 27.2075 141.422 27.6677C140.962 28.128 138.8 28.082 134.936 27.5297C131.163 26.9774 125.091 26.333 116.719 25.5966V48.6558C123.159 49.2081 128.173 49.7144 131.761 50.1747C135.442 50.6349 137.374 50.9571 137.558 51.1412C137.926 51.5094 138.064 52.2458 137.972 53.3505C137.88 54.4551 137.65 55.6518 137.282 56.9405C136.914 58.1372 136.454 59.2879 135.902 60.3925C135.35 61.4051 134.798 62.0955 134.246 62.4637C133.97 62.6478 132.313 62.924 129.277 63.2922C126.333 63.6604 122.147 63.9826 116.719 64.2587Z" fill="#DADADA"/>
<path d="M189.725 5.437C190.001 5.89726 190.139 6.95587 190.139 8.61282C190.231 10.2698 190.185 12.0648 190.001 13.9979C189.817 15.931 189.541 17.8181 189.173 19.6592C188.897 21.4082 188.575 22.5588 188.207 23.1111C187.931 23.5714 186.229 23.7555 183.101 23.6635C180.064 23.4793 175.694 23.0191 169.99 22.2827C169.99 25.8727 169.944 30.4754 169.852 36.0906C169.76 41.7058 169.576 47.7353 169.3 54.179C169.116 60.5306 168.886 66.9283 168.61 73.372C168.426 79.8157 168.196 85.661 167.92 90.908C167.644 96.155 167.368 100.435 167.092 103.749C166.816 107.063 166.586 108.812 166.402 108.996C166.034 109.273 165.39 109.134 164.469 108.582C163.641 108.122 162.767 107.431 161.847 106.511C160.927 105.59 160.053 104.67 159.225 103.749C158.489 102.737 157.983 101.862 157.707 101.126C157.615 100.758 157.431 98.9626 157.155 95.7408C156.971 92.5189 156.741 88.4686 156.465 83.5898C156.189 78.711 155.867 73.2799 155.499 67.2965C155.131 61.313 154.763 55.3756 154.395 49.4843C154.027 43.5929 153.613 38.0697 153.153 32.9148C152.785 27.7598 152.463 23.4793 152.187 20.0734C145.93 19.429 141.422 18.7847 138.662 18.1403C135.902 17.4959 134.338 16.9896 133.97 16.6214C133.602 16.2532 133.234 15.5628 132.866 14.5502C132.405 13.4456 132.037 12.341 131.761 11.2363C131.485 10.1317 131.347 9.11911 131.347 8.19858C131.255 7.186 131.347 6.54163 131.623 6.26547C131.807 6.08137 133.372 5.89726 136.316 5.71315C139.168 5.52905 142.71 5.34494 146.942 5.16084C151.175 4.97673 155.729 4.83865 160.605 4.7466C165.574 4.65455 170.174 4.60852 174.406 4.60852C178.638 4.60852 182.181 4.70057 185.033 4.88468C187.977 4.97673 189.541 5.16084 189.725 5.437Z" fill="#DADADA"/>
</g>
<g filter="url(#filter2_d_30_39)">
<path d="M41.063 137.458C41.1296 138.452 40.9964 139.942 40.6635 141.928C40.3972 143.915 39.9311 145.902 39.2653 147.888C38.5995 149.875 37.734 151.63 36.6687 153.153C35.67 154.61 34.5049 155.338 33.1733 155.338C32.5075 155.338 31.9415 154.941 31.4755 154.146C31.0094 153.352 30.6099 152.325 30.277 151.067C29.9441 149.809 29.6778 148.418 29.478 146.895C29.2783 145.306 29.0786 143.783 28.8788 142.326C28.7457 140.869 28.6125 139.544 28.4793 138.352C28.4128 137.094 28.3462 136.167 28.2796 135.571C28.0133 135.174 27.5139 134.776 26.7815 134.379C26.1157 133.915 25.5165 133.684 24.9839 133.684C24.3847 133.684 23.6523 134.247 22.7867 135.372C21.9878 136.498 21.2221 137.823 20.4897 139.346C19.7573 140.869 19.1581 142.392 18.692 143.915C18.226 145.372 18.0262 146.498 18.0928 147.292C18.0928 147.822 18.5922 148.749 19.5909 150.074C20.6562 151.398 21.9545 152.954 23.4858 154.742C25.0172 156.53 26.6817 158.484 28.4793 160.603C30.277 162.656 31.9415 164.709 33.4729 166.762C35.0042 168.815 36.3025 170.768 37.3678 172.622C38.4331 174.477 38.999 176.066 39.0656 177.39C39.1988 178.98 38.8326 181.033 37.967 183.549C37.1681 185.999 36.1361 188.383 34.871 190.701C33.606 193.019 32.2411 195.039 30.7764 196.76C29.3782 198.416 28.1132 199.277 26.9813 199.343C26.2489 199.409 25.2835 199.078 24.085 198.35C22.8866 197.687 21.5883 196.793 20.1901 195.668C18.7919 194.542 17.3604 193.317 15.8957 191.992C14.4975 190.602 13.1659 189.244 11.9009 187.92C10.7024 186.595 9.67042 185.403 8.80488 184.344C8.00591 183.218 7.53985 182.39 7.40669 181.86C7.14037 181.066 6.97392 180.006 6.90734 178.682C6.90734 177.291 6.97392 175.967 7.10708 174.708C7.30682 173.384 7.53985 172.258 7.80617 171.331C8.13907 170.338 8.53856 169.841 9.00462 169.841C9.33752 169.841 9.87016 170.271 10.6025 171.132C11.4015 171.993 12.3003 173.086 13.299 174.41C14.2977 175.735 15.363 177.192 16.4949 178.781C17.6933 180.304 18.8252 181.728 19.8905 183.052C20.9558 184.377 21.9212 185.503 22.7867 186.43C23.6523 187.291 24.3514 187.688 24.884 187.622C25.2835 187.622 25.7163 187.324 26.1823 186.728C26.6484 186.065 27.0812 185.304 27.4806 184.443C27.8801 183.516 28.213 182.589 28.4793 181.662C28.7457 180.735 28.8788 180.006 28.8788 179.476C28.8122 178.682 28.1464 177.556 26.8814 176.099C25.683 174.576 24.1516 172.887 22.2874 171.033C20.4897 169.113 18.5256 167.126 16.395 165.073C14.331 163.02 12.3669 161.067 10.5027 159.212C8.70501 157.292 7.17366 155.57 5.90863 154.047C4.71019 152.524 4.07768 151.365 4.0111 150.57C3.94452 149.776 4.17755 148.551 4.71019 146.895C5.24283 145.173 5.94192 143.253 6.80747 141.134C7.73959 139.015 8.77159 136.862 9.90345 134.677C11.0353 132.492 12.2005 130.472 13.3989 128.618C14.5974 126.763 15.7625 125.273 16.8944 124.148C18.0262 122.956 19.0249 122.36 19.8905 122.36C21.0224 122.36 22.3207 122.624 23.7854 123.154C25.2502 123.618 26.7483 124.28 28.2796 125.141C29.8775 125.936 31.4089 126.863 32.8736 127.922C34.405 128.982 35.7699 130.075 36.9683 131.2C38.1668 132.26 39.1322 133.353 39.8646 134.478C40.597 135.538 40.9964 136.531 41.063 137.458Z" fill="#DADADA"/>
<path d="M74.9191 121.068C75.1188 121.333 75.3519 122.691 75.6182 125.141C75.9511 127.525 76.284 130.505 76.6169 134.081C77.0164 137.657 77.4158 141.564 77.8153 145.802C78.2148 149.974 78.581 154.014 78.9139 157.921C79.2468 161.762 79.5464 165.205 79.8127 168.252C80.079 171.232 80.2788 173.318 80.4119 174.51C80.6117 176.298 80.9113 178.483 81.3108 181.066C81.7768 183.648 82.2096 186.198 82.6091 188.714C83.0752 191.165 83.4414 193.317 83.7077 195.171C83.974 197.025 84.0073 198.118 83.8075 198.449C83.6078 198.78 82.942 198.747 81.8101 198.35C80.6783 197.952 79.4465 197.389 78.1149 196.661C76.7833 195.933 75.5183 195.138 74.3199 194.277C73.188 193.416 72.4556 192.688 72.1227 192.092C71.7898 191.429 71.4236 190.337 71.0241 188.814C70.6246 187.224 70.1919 185.138 69.7258 182.556C68.8603 184.145 67.8949 185.767 66.8296 187.423C65.7643 189.079 64.7323 190.602 63.7336 191.992C62.7349 193.383 61.8028 194.542 60.9372 195.469C60.1383 196.33 59.539 196.727 59.1396 196.661C58.4738 196.595 57.4418 195.734 56.0436 194.078C54.712 192.357 53.3471 190.436 51.9489 188.317C50.5507 186.132 49.2857 184.079 48.1538 182.158C47.0885 180.172 46.4893 178.847 46.3561 178.185C46.2896 177.788 46.2563 176.894 46.2563 175.503C46.2563 174.046 46.2563 172.324 46.2563 170.338C46.3229 168.351 46.3894 166.199 46.456 163.881C46.5892 161.497 46.689 159.179 46.7556 156.928C46.8888 154.61 46.9887 152.425 47.0552 150.372C47.1884 148.319 47.3216 146.63 47.4547 145.306C47.5879 143.253 47.7543 141.134 47.9541 138.948C48.2204 136.697 48.4534 134.611 48.6532 132.69C48.9195 130.77 49.1525 129.147 49.3523 127.823C49.6186 126.432 49.8516 125.571 50.0513 125.24C50.1845 124.975 50.584 124.81 51.2498 124.744C51.9822 124.677 52.7811 124.744 53.6467 124.942C54.5122 125.075 55.3112 125.34 56.0436 125.737C56.776 126.068 57.2753 126.498 57.5416 127.028C57.6748 127.359 57.7414 128.684 57.7414 131.002C57.8079 133.253 57.8412 135.968 57.8412 139.147C57.8412 142.326 57.8079 145.769 57.7414 149.478C57.7414 153.12 57.7081 156.563 57.6415 159.808C57.5749 163.053 57.5083 165.835 57.4418 168.152C57.4418 170.404 57.4418 171.728 57.4418 172.126C57.4418 172.854 57.9411 174.013 58.9398 175.602C60.0051 177.125 60.9705 178.98 61.8361 181.165L68.1279 174.112C68.0613 172.258 67.9947 169.874 67.9282 166.96C67.9282 164.047 67.8949 160.967 67.8283 157.722C67.7617 154.411 67.6951 151.1 67.6285 147.789C67.6285 144.412 67.6285 141.332 67.6285 138.551C67.6285 135.77 67.6285 133.485 67.6285 131.697C67.6951 129.843 67.7617 128.783 67.8283 128.518C68.028 127.988 68.4275 127.227 69.0267 126.234C69.6925 125.174 70.3916 124.214 71.124 123.353C71.8564 122.426 72.5888 121.697 73.3212 121.168C74.0535 120.638 74.5862 120.605 74.9191 121.068Z" fill="#DADADA"/>
<path d="M123.656 134.478C123.989 134.876 124.322 136.001 124.655 137.856C124.987 139.71 125.22 141.73 125.354 143.915C125.553 146.1 125.62 148.153 125.553 150.074C125.553 151.994 125.387 153.252 125.054 153.848C124.788 154.246 124.122 154.974 123.057 156.034C121.991 157.027 120.76 158.153 119.361 159.411C117.963 160.669 116.498 161.927 114.967 163.186C113.502 164.378 112.204 165.404 111.072 166.265C111.605 167.325 112.271 168.715 113.07 170.437C113.869 172.093 114.734 173.881 115.666 175.801C116.598 177.655 117.497 179.576 118.363 181.562C119.295 183.549 120.127 185.37 120.859 187.026C121.592 188.615 122.191 189.973 122.657 191.098C123.123 192.158 123.356 192.787 123.356 192.986C123.356 193.317 123.19 193.78 122.857 194.376C122.591 194.972 122.224 195.535 121.758 196.065C121.292 196.529 120.793 196.926 120.26 197.257C119.728 197.588 119.228 197.654 118.762 197.456C118.496 197.389 117.997 196.86 117.264 195.866C116.532 194.807 115.633 193.515 114.568 191.992C113.569 190.403 112.437 188.615 111.172 186.628C109.974 184.642 108.742 182.655 107.477 180.668C106.212 178.615 105.013 176.662 103.881 174.808C102.75 172.887 101.751 171.199 100.885 169.742C100.752 176.629 100.586 181.927 100.386 185.635C100.253 189.343 100.153 192.059 100.086 193.78C99.9533 195.833 99.8201 196.992 99.6869 197.257C99.4872 197.257 99.0544 196.992 98.3886 196.462C97.7228 195.866 97.0237 195.171 96.2913 194.376C95.559 193.582 94.8599 192.787 94.1941 191.992C93.5948 191.198 93.2287 190.602 93.0955 190.204C92.9623 189.343 92.7626 186.86 92.4963 182.754C92.3631 180.966 92.2299 178.748 92.0968 176.099C91.9636 173.45 91.7972 170.238 91.5974 166.464C91.4643 162.689 91.2645 158.252 90.9982 153.153C90.7319 148.054 90.4656 142.193 90.1992 135.571C89.0008 135.505 88.0354 135.505 87.303 135.571C86.5706 135.571 86.0047 135.604 85.6052 135.67C85.2057 135.737 84.9061 135.77 84.7064 135.77C84.5066 135.703 84.3402 135.538 84.207 135.273C83.9407 134.743 83.741 133.849 83.6078 132.591C83.4746 131.267 83.4081 130.008 83.4081 128.816C83.4081 127.492 83.6078 126.167 84.0073 124.843C84.3402 123.518 84.773 122.691 85.3056 122.36C85.5719 122.161 86.504 122.194 88.102 122.459C89.6999 122.658 91.4643 122.922 93.3951 123.254C95.3259 123.585 97.1569 123.949 98.888 124.346C100.686 124.744 101.851 125.008 102.383 125.141C102.85 125.273 103.615 125.505 104.68 125.836C105.746 126.101 106.977 126.498 108.376 127.028C109.774 127.492 111.239 128.022 112.77 128.618C114.368 129.214 115.866 129.843 117.264 130.505C118.662 131.167 119.927 131.829 121.059 132.492C122.191 133.154 123.057 133.816 123.656 134.478ZM101.185 162.49C101.784 162.159 102.583 161.53 103.582 160.603C104.581 159.61 105.646 158.517 106.778 157.325C107.976 156.067 109.175 154.775 110.373 153.451C111.572 152.06 112.637 150.769 113.569 149.577C114.568 148.385 115.367 147.359 115.966 146.498C116.565 145.637 116.865 145.074 116.865 144.809C116.865 144.345 116.432 143.816 115.566 143.22C114.767 142.557 113.702 141.895 112.37 141.233C111.039 140.571 109.474 139.942 107.677 139.346C105.879 138.683 104.048 138.121 102.184 137.657L101.185 162.49Z" fill="#DADADA"/>
<path d="M139.935 188.019C138.67 183.715 137.305 178.649 135.84 172.821C134.575 167.854 133.11 161.795 131.446 154.643C129.781 147.491 128.017 139.279 126.153 130.008C126.153 129.346 126.519 128.584 127.251 127.724C127.984 126.796 128.849 125.936 129.848 125.141C130.913 124.346 132.012 123.651 133.144 123.055C134.275 122.459 135.241 122.161 136.04 122.161C136.506 122.691 137.138 124.942 137.937 128.916C138.27 130.637 138.67 132.79 139.136 135.372C139.668 137.955 140.234 141.167 140.834 145.008C141.433 148.782 142.099 153.219 142.831 158.318C143.563 163.417 144.396 169.344 145.328 176.099C145.994 171.53 146.659 167.225 147.325 163.186C147.991 159.08 148.59 155.438 149.123 152.259C149.789 148.617 150.388 145.239 150.92 142.127C151.187 140.207 151.486 138.187 151.819 136.068C152.219 133.882 152.618 131.896 153.018 130.108C153.417 128.32 153.817 126.83 154.216 125.638C154.682 124.446 155.182 123.85 155.714 123.85C156.18 123.783 156.946 123.85 158.011 124.048C159.143 124.247 160.242 124.545 161.307 124.942C162.372 125.273 163.304 125.671 164.103 126.134C164.969 126.598 165.402 127.061 165.402 127.525C165.402 127.79 165.135 129.048 164.603 131.3C164.137 133.551 163.438 136.432 162.505 139.942C161.64 143.385 160.641 147.292 159.509 151.663C158.444 156.034 157.279 160.504 156.014 165.073C154.815 169.576 153.617 173.98 152.419 178.284C151.22 182.589 150.121 186.43 149.123 189.807C148.124 193.118 147.259 195.8 146.526 197.853C145.86 199.906 145.394 200.932 145.128 200.932C144.862 200.932 144.163 199.773 143.031 197.456C141.899 195.072 140.867 191.926 139.935 188.019Z" fill="#DADADA"/>
<path d="M191.168 135.77C190.036 135.836 188.904 135.869 187.773 135.869C186.707 135.803 185.709 135.77 184.777 135.77C183.711 135.77 182.713 135.737 181.78 135.67C181.914 139.18 181.947 143.286 181.88 147.988C181.88 152.623 181.814 157.391 181.681 162.292C181.614 167.192 181.481 171.993 181.281 176.695C181.148 181.331 180.981 185.436 180.782 189.012C183.312 188.946 185.542 188.946 187.473 189.012C189.404 189.079 190.436 189.178 190.569 189.31C190.702 189.509 190.702 190.171 190.569 191.297C190.436 192.357 190.236 193.549 189.97 194.873C189.703 196.131 189.437 197.29 189.171 198.35C188.904 199.475 188.705 200.171 188.572 200.436C186.707 200.502 184.976 200.502 183.378 200.436C181.847 200.436 180.515 200.369 179.384 200.237C178.052 200.171 176.853 200.071 175.788 199.939C174.723 199.74 173.591 199.509 172.393 199.244C171.394 198.979 170.229 198.648 168.897 198.25C167.632 197.853 166.334 197.356 165.002 196.76C164.736 196.628 164.403 196.264 164.003 195.668C163.671 195.072 163.304 194.443 162.905 193.78C162.572 193.052 162.306 192.357 162.106 191.694C161.84 191.032 161.706 190.569 161.706 190.304C161.706 190.237 162.006 190.171 162.605 190.105C163.205 189.973 164.037 189.873 165.102 189.807C166.167 189.675 167.366 189.575 168.697 189.509C170.029 189.377 171.46 189.277 172.992 189.211C172.859 187.291 172.659 184.774 172.393 181.662C172.193 178.483 171.96 175.073 171.693 171.43C171.494 167.722 171.261 163.947 170.994 160.106C170.795 156.199 170.628 152.59 170.495 149.279C170.362 145.902 170.295 142.955 170.295 140.438C170.295 137.922 170.395 136.167 170.595 135.174C170.661 135.041 170.695 134.942 170.695 134.876C170.695 134.743 170.728 134.611 170.795 134.478L167.998 133.783C167.199 133.584 166.334 133.353 165.402 133.088C164.47 132.823 163.537 132.525 162.605 132.194C162.339 132.061 162.006 131.697 161.607 131.101C161.141 130.505 160.708 129.843 160.308 129.114C159.842 128.386 159.476 127.724 159.21 127.128C158.877 126.465 158.71 126.002 158.71 125.737C158.71 125.604 159.576 125.472 161.307 125.34C162.971 125.141 165.069 124.975 167.599 124.843C170.129 124.71 172.859 124.611 175.788 124.545C178.784 124.479 181.547 124.446 184.077 124.446C186.674 124.446 188.838 124.479 190.569 124.545C192.367 124.545 193.332 124.611 193.465 124.744C193.665 124.942 193.665 125.604 193.465 126.73C193.332 127.79 193.099 128.982 192.766 130.306C192.5 131.565 192.2 132.757 191.867 133.882C191.601 134.942 191.368 135.571 191.168 135.77Z" fill="#DADADA"/>
<path d="M204.85 188.019C203.585 183.715 202.221 178.649 200.756 172.821C199.491 167.854 198.026 161.795 196.361 154.643C194.697 147.491 192.933 139.279 191.068 130.008C191.068 129.346 191.435 128.584 192.167 127.724C192.899 126.796 193.765 125.936 194.764 125.141C195.829 124.346 196.927 123.651 198.059 123.055C199.191 122.459 200.157 122.161 200.956 122.161C201.422 122.691 202.054 124.942 202.853 128.916C203.186 130.637 203.585 132.79 204.051 135.372C204.584 137.955 205.15 141.167 205.749 145.008C206.349 148.782 207.014 153.219 207.747 158.318C208.479 163.417 209.311 169.344 210.243 176.099C210.909 171.53 211.575 167.225 212.241 163.186C212.907 159.08 213.506 155.438 214.039 152.259C214.704 148.617 215.304 145.239 215.836 142.127C216.103 140.207 216.402 138.187 216.735 136.068C217.135 133.882 217.534 131.896 217.933 130.108C218.333 128.32 218.732 126.83 219.132 125.638C219.598 124.446 220.097 123.85 220.63 123.85C221.096 123.783 221.862 123.85 222.927 124.048C224.059 124.247 225.157 124.545 226.223 124.942C227.288 125.273 228.22 125.671 229.019 126.134C229.885 126.598 230.317 127.061 230.317 127.525C230.317 127.79 230.051 129.048 229.518 131.3C229.052 133.551 228.353 136.432 227.421 139.942C226.556 143.385 225.557 147.292 224.425 151.663C223.36 156.034 222.195 160.504 220.93 165.073C219.731 169.576 218.533 173.98 217.334 178.284C216.136 182.589 215.037 186.43 214.039 189.807C213.04 193.118 212.174 195.8 211.442 197.853C210.776 199.906 210.31 200.932 210.044 200.932C209.777 200.932 209.078 199.773 207.946 197.456C206.815 195.072 205.783 191.926 204.85 188.019Z" fill="#DADADA"/>
<path d="M261.177 140.637C260.911 140.968 259.28 141.001 256.284 140.736C253.288 140.471 248.56 140.041 242.102 139.445C242.102 141.63 242.102 144.312 242.102 147.491C242.169 150.67 242.169 154.08 242.102 157.722C247.096 158.186 250.991 158.616 253.787 159.014C256.583 159.411 258.048 159.676 258.181 159.808C258.448 160.073 258.547 160.636 258.481 161.497C258.414 162.292 258.248 163.186 257.982 164.179C257.715 165.172 257.382 166.133 256.983 167.06C256.583 167.921 256.184 168.483 255.784 168.748C255.451 168.881 254.12 169.079 251.79 169.344C249.526 169.543 246.297 169.742 242.102 169.94C242.102 172.788 242.069 175.602 242.002 178.384C242.002 181.165 241.969 183.715 241.902 186.032C248.361 186.099 253.055 186.231 255.984 186.43C258.98 186.562 260.611 186.761 260.878 187.026C261.144 187.357 261.144 187.986 260.878 188.913C260.678 189.84 260.312 190.833 259.779 191.893C259.313 192.886 258.78 193.88 258.181 194.873C257.649 195.866 257.216 196.562 256.883 196.959C256.75 197.091 255.951 197.158 254.486 197.158C253.021 197.091 251.39 196.992 249.592 196.86C247.795 196.727 246.064 196.595 244.399 196.462C242.735 196.264 241.636 196.098 241.103 195.966C240.105 195.635 239.039 195.105 237.908 194.376C236.776 193.582 235.877 192.588 235.211 191.396C235.078 191.065 234.845 189.973 234.512 188.118C234.246 186.198 233.946 183.781 233.613 180.867C233.28 177.953 232.947 174.675 232.614 171.033C232.282 167.391 231.949 163.682 231.616 159.908C231.283 156.133 230.983 152.425 230.717 148.782C230.451 145.14 230.218 141.862 230.018 138.948C229.885 135.968 229.818 133.518 229.818 131.598C229.818 129.611 229.918 128.419 230.118 128.022C230.317 127.492 231.25 127.094 232.914 126.83C234.579 126.565 236.576 126.399 238.906 126.333C241.237 126.2 243.733 126.167 246.397 126.234C249.126 126.3 251.656 126.432 253.987 126.631C256.317 126.763 258.281 126.962 259.879 127.227C261.477 127.426 262.376 127.624 262.576 127.823C262.842 128.154 262.975 128.916 262.975 130.108C263.042 131.3 262.975 132.624 262.775 134.081C262.642 135.472 262.409 136.829 262.076 138.154C261.81 139.412 261.51 140.24 261.177 140.637Z" fill="#DADADA"/>
</g>
<defs>
<filter id="filter0_d_30_39" x="191.715" y="0" width="65.1459" height="120.448" filterUnits="userSpaceOnUse" color-interpolation-filters="sRGB">
<feFlood flood-opacity="0" result="BackgroundImageFix"/>
<feColorMatrix in="SourceAlpha" type="matrix" values="0 0 0 0 0 0 0 0 0 0 0 0 0 0 0 0 0 0 127 0" result="hardAlpha"/>
<feOffset dy="4"/>
<feGaussianBlur stdDeviation="2"/>
<feComposite in2="hardAlpha" operator="out"/>
<feColorMatrix type="matrix" values="0 0 0 0 0 0 0 0 0 0 0 0 0 0 0 0 0 0 0.25 0"/>
<feBlend mode="normal" in2="BackgroundImageFix" result="effect1_dropShadow_30_39"/>
<feBlend mode="normal" in="SourceGraphic" in2="effect1_dropShadow_30_39" result="shape"/>
</filter>
<filter id="filter1_d_30_39" x="6.45195" y="4.60852" width="187.733" height="115.84" filterUnits="userSpaceOnUse" color-interpolation-filters="sRGB">
<feFlood flood-opacity="0" result="BackgroundImageFix"/>
<feColorMatrix in="SourceAlpha" type="matrix" values="0 0 0 0 0 0 0 0 0 0 0 0 0 0 0 0 0 0 127 0" result="hardAlpha"/>
<feOffset dy="4"/>
<feGaussianBlur stdDeviation="2"/>
<feComposite in2="hardAlpha" operator="out"/>
<feColorMatrix type="matrix" values="0 0 0 0 0 0 0 0 0 0 0 0 0 0 0 0 0 0 0.25 0"/>
<feBlend mode="normal" in2="BackgroundImageFix" result="effect1_dropShadow_30_39"/>
<feBlend mode="normal" in="SourceGraphic" in2="effect1_dropShadow_30_39" result="shape"/>
</filter>
<filter id="filter2_d_30_39" x="0" y="120.744" width="267" height="88.1886" filterUnits="userSpaceOnUse" color-interpolation-filters="sRGB">
<feFlood flood-opacity="0" result="BackgroundImageFix"/>
<feColorMatrix in="SourceAlpha" type="matrix" values="0 0 0 0 0 0 0 0 0 0 0 0 0 0 0 0 0 0 127 0" result="hardAlpha"/>
<feOffset dy="4"/>
<feGaussianBlur stdDeviation="2"/>
<feComposite in2="hardAlpha" operator="out"/>
<feColorMatrix type="matrix" values="0 0 0 0 0 0 0 0 0 0 0 0 0 0 0 0 0 0 0.25 0"/>
<feBlend mode="normal" in2="BackgroundImageFix" result="effect1_dropShadow_30_39"/>
<feBlend mode="normal" in="SourceGraphic" in2="effect1_dropShadow_30_39" result="shape"/>
</filter>
<linearGradient id="paint0_linear_30_39" x1="224.459" y1="-4.2485" x2="224.459" y2="109.884" gradientUnits="userSpaceOnUse">
<stop stop-color="#6ECBA1"/>
<stop offset="1" stop-color="#3E534D"/>
</linearGradient>
</defs>
</svg>
